<?xml version="1.0" encoding="UTF-8"?>
<svg width="220" height="220" viewBox="0 0 220 220" fill="none" xmlns="http://www.w3.org/2000/svg">
  <circle cx="110" cy="110" r="100" fill="#3C2A1E" />
  <!-- Face -->
  <ellipse cx="110" cy="120" rx="65" ry="80" fill="#6D4C2F" />
  <!-- Cheeks -->
  <ellipse cx="75" cy="145" rx="15" ry="10" fill="#A97C50" opacity="0.7" />
  <ellipse cx="145" cy="145" rx="15" ry="10" fill="#A97C50" opacity="0.7" />
  <!-- Smile -->
  <path d="M85 155 Q110 175 135 155" stroke="#442A1A" stroke-width="4" fill="none" />
  <!-- Eyes -->
  <ellipse cx="90" cy="120" rx="10" ry="12" fill="#fff" />
  <ellipse cx="130" cy="120" rx="10" ry="12" fill="#fff" />
  <ellipse cx="90" cy="123" rx="4" ry="5" fill="#2D1B0F" />
  <ellipse cx="130" cy="123" rx="4" ry="5" fill="#2D1B0F" />
  <!-- Glasses -->
  <ellipse cx="90" cy="120" rx="15" ry="14" stroke="#222" stroke-width="3" fill="none" />
  <ellipse cx="130" cy="120" rx="15" ry="14" stroke="#222" stroke-width="3" fill="none" />
  <rect x="105" y="120" width="10" height="3" fill="#222" />
  <!-- Hair (top) -->
  <ellipse cx="110" cy="70" rx="50" ry="30" fill="#2D1B0F" />
  <!-- Hair (side) -->
  <ellipse cx="45" cy="110" rx="18" ry="35" fill="#2D1B0F" />
  <ellipse cx="175" cy="110" rx="18" ry="35" fill="#2D1B0F" />
  <!-- Eyebrows -->
  <path d="M80 105 Q90 100 100 105" stroke="#442A1A" stroke-width="3" fill="none" />
  <path d="M120 105 Q130 100 140 105" stroke="#442A1A" stroke-width="3" fill="none" />
  <!-- Shirt -->
  <ellipse cx="110" cy="200" rx="45" ry="18" fill="#E57373" />
  <!-- Accessories: earrings -->
  <circle cx="60" cy="160" r="7" fill="#FFD700" />
  <circle cx="160" cy="160" r="7" fill="#FFD700" />
</svg>
  <ellipse cx="60" cy="70" rx="38" ry="44" fill="#3c2a1e"/>
  <ellipse cx="60" cy="70" rx="32" ry="38" fill="#6d4c2b"/>
  <circle cx="60" cy="65" r="28" fill="#2d1a0b"/>
  <ellipse cx="60" cy="90" rx="18" ry="10" fill="#6d4c2b"/>
  <circle cx="60" cy="70" r="24" fill="#3c2a1e"/>
  <ellipse cx="60" cy="80" rx="16" ry="8" fill="#6d4c2b"/>
  <ellipse cx="60" cy="70" rx="20" ry="24" fill="#6d4c2b"/>
  <ellipse cx="60" cy="70" rx="16" ry="20" fill="#8d5c36"/>
  <ellipse cx="60" cy="70" rx="14" ry="18" fill="#a87c4f"/>
  <ellipse cx="60" cy="70" rx="12" ry="16" fill="#6d4c2b"/>
  <ellipse cx="60" cy="70" rx="10" ry="14" fill="#3c2a1e"/>
  <ellipse cx="60" cy="70" rx="8" ry="12" fill="#2d1a0b"/>
  <ellipse cx="60" cy="70" rx="6" ry="10" fill="#6d4c2b"/>
  <ellipse cx="60" cy="70" rx="4" ry="8" fill="#a87c4f"/>
  <ellipse cx="60" cy="70" rx="2" ry="6" fill="#8d5c36"/>
  <!-- Olhos -->
  <ellipse cx="50" cy="75" rx="3" ry="4" fill="#fff"/>
  <ellipse cx="70" cy="75" rx="3" ry="4" fill="#fff"/>
  <ellipse cx="50" cy="75" rx="1.5" ry="2" fill="#222"/>
  <ellipse cx="70" cy="75" rx="1.5" ry="2" fill="#222"/>
  <!-- Sorriso -->
  <path d="M52 88 Q60 95 68 88" stroke="#222" stroke-width="2" fill="none"/>
  <!-- Brinco -->
  <circle cx="40" cy="100" r="4" fill="#ffd700"/>
  <circle cx="80" cy="100" r="4" fill="#ffd700"/>
</svg>
