<!-- Avatar da Tia Dora: mulher preta, estilo amigável, livre de direitos -->
<svg width="120" height="120" viewBox="0 0 120 120" xmlns="http://www.w3.org/2000/svg">
  <circle cx="60" cy="60" r="58" fill="#f5f7fa" stroke="#764ba2" stroke-width="4"/>
  <ellipse cx="60" cy="70" rx="38" ry="44" fill="#3c2a1e"/>
  <ellipse cx="60" cy="70" rx="32" ry="38" fill="#6d4c2b"/>
  <circle cx="60" cy="65" r="28" fill="#2d1a0b"/>
  <ellipse cx="60" cy="90" rx="18" ry="10" fill="#6d4c2b"/>
  <circle cx="60" cy="70" r="24" fill="#3c2a1e"/>
  <ellipse cx="60" cy="80" rx="16" ry="8" fill="#6d4c2b"/>
  <ellipse cx="60" cy="70" rx="20" ry="24" fill="#6d4c2b"/>
  <ellipse cx="60" cy="70" rx="16" ry="20" fill="#8d5c36"/>
  <ellipse cx="60" cy="70" rx="14" ry="18" fill="#a87c4f"/>
  <ellipse cx="60" cy="70" rx="12" ry="16" fill="#6d4c2b"/>
  <ellipse cx="60" cy="70" rx="10" ry="14" fill="#3c2a1e"/>
  <ellipse cx="60" cy="70" rx="8" ry="12" fill="#2d1a0b"/>
  <ellipse cx="60" cy="70" rx="6" ry="10" fill="#6d4c2b"/>
  <ellipse cx="60" cy="70" rx="4" ry="8" fill="#a87c4f"/>
  <ellipse cx="60" cy="70" rx="2" ry="6" fill="#8d5c36"/>
  <!-- Olhos -->
  <ellipse cx="50" cy="75" rx="3" ry="4" fill="#fff"/>
  <ellipse cx="70" cy="75" rx="3" ry="4" fill="#fff"/>
  <ellipse cx="50" cy="75" rx="1.5" ry="2" fill="#222"/>
  <ellipse cx="70" cy="75" rx="1.5" ry="2" fill="#222"/>
  <!-- Sorriso -->
  <path d="M52 88 Q60 95 68 88" stroke="#222" stroke-width="2" fill="none"/>
  <!-- Brinco -->
  <circle cx="40" cy="100" r="4" fill="#ffd700"/>
  <circle cx="80" cy="100" r="4" fill="#ffd700"/>
</svg>
